<svg version="1.1" preserveAspectRatio="none" xmlns="http://www.w3.org/2000/svg" width="500" height="500" viewBox="0 0 500 500"><rect width="100%" height="100%" fill="#FFFFFF" fill-opacity="1"/><svg viewBox="141.5376 159.1572 333.2363 140" width="333" height="139.90072510107692" x="83.5px" y="180.0496px" xmlns="http://www.w3.org/2000/svg" xmlns:xlink="http://www.w3.org/1999/xlink" preserveAspectRatio="none"><defs></defs><style>.companyName {fill:#0C0C0C;fill-opacity:1;}.icon3 {fill:#0C0C0C;fill-opacity:1;}.icon3-str {stroke:#0C0C0C;stroke-opacity:1;}</style><g opacity="1" transform="rotate(0 172.5853 169.1572)">
<svg width="302.1886" height="120" x="172.5853" y="169.1572" version="1.1" preserveAspectRatio="none" viewBox="2 -23.16 132.56 52.64">
  <g transform="matrix(1 0 0 1 0 0)" class="companyName"><path id="id-D6z1nYkh10" d="M29.24-19.72L29.24-19.72Q29.20-19.20 29.08-18.36Q28.96-17.52 28.76-16.64Q28.56-15.76 28.34-15Q28.12-14.24 27.92-13.84L27.92-13.84Q26.92-9.32 22.76-3.60L22.76-3.60Q22.36-2.64 21.58-2.08Q20.80-1.52 20.04-1.04L20.04-1.04Q19.80-1.20 19.36-1.88Q18.92-2.56 18.42-3.46Q17.92-4.36 17.44-5.32Q16.96-6.28 16.68-7.04L16.68-7.04Q15.64-8.04 14.48-11L14.48-11Q14.20-9.96 13.76-8.58Q13.32-7.20 12.68-5.40L12.68-5.40Q12-4.12 11.58-3.32Q11.16-2.52 10.80-2.02Q10.44-1.52 10.08-1.24Q9.72-0.96 9.20-0.72L9.20-0.72Q8.60-1 7.96-1.82Q7.32-2.64 6.76-3.62Q6.20-4.60 5.82-5.54Q5.44-6.48 5.40-7.04L5.40-7.04L2.88-13.28Q2.84-13.76 2.70-14.32Q2.56-14.88 2.40-15.46Q2.24-16.04 2.12-16.62Q2-17.20 2-17.72L2-17.72Q2-18.76 2.54-19.30Q3.08-19.84 3.80-19.84L3.80-19.84Q4.96-19.84 6.08-18.60L6.08-18.60Q6.04-18.44 6.04-18.08L6.04-18.08Q6.08-17.64 6.12-17.06Q6.16-16.48 6.28-15.68L6.28-15.68L6.68-13.28Q7.04-12.52 7.32-11.80Q7.60-11.08 7.88-10.28Q8.16-9.48 8.48-8.52Q8.80-7.56 9.24-6.32L9.24-6.32Q9.36-6.80 9.44-7.06Q9.52-7.32 9.58-7.54Q9.64-7.76 9.74-8.06Q9.84-8.36 10.06-8.96Q10.28-9.56 10.64-10.52Q11-11.48 11.60-13.04L11.60-13.04Q11.84-14.80 12.28-15.76L12.28-15.76L12.28-16Q12.28-17.52 14.28-17.52L14.28-17.52Q14.96-17.52 15.26-17.26Q15.56-17 15.74-16.56Q15.92-16.12 16.08-15.52Q16.24-14.92 16.68-14.20L16.68-14.20L17.24-13Q17.84-11.68 18.30-10.94Q18.76-10.20 19.08-9.80L19.08-9.80Q19.32-9.24 19.70-8.48Q20.08-7.72 20.60-6.72L20.60-6.72Q20.92-7.20 21.36-7.88Q21.80-8.56 22.30-9.64Q22.80-10.72 23.34-12.28Q23.88-13.84 24.48-16.08L24.48-16.08Q24.92-17.76 25.34-18.90Q25.76-20.04 26.16-20.72L26.16-20.72Q26.52-20.88 27.08-20.88L27.08-20.88Q28.56-20.88 29.24-19.72Z M46.72-1.60L46.72-1.60Q45.44-0.32 43.84 0.58Q42.24 1.48 40.60 1.48L40.60 1.48Q39.12 1.48 36.80 1L36.80 1Q36 0.48 35.20-0.26Q34.40-1 33.76-1.90Q33.12-2.80 32.72-3.86Q32.32-4.92 32.32-6.04L32.32-6.04Q32.32-6.36 32.36-6.90Q32.40-7.44 32.46-7.98Q32.52-8.52 32.56-8.92Q32.60-9.32 32.60-9.32L32.60-9.32Q33.40-10.60 34.30-11.86Q35.20-13.12 36.84-14.08L36.84-14.08Q39.44-14.64 40.60-14.64L40.60-14.64Q41.20-14.64 41.64-14.58Q42.08-14.52 42.50-14.34Q42.92-14.16 43.34-13.80Q43.76-13.44 44.32-12.88L44.32-12.88Q44.96-12.20 45.34-11.96Q45.72-11.72 45.72-11.52L45.72-11.52Q45.72-7.84 43.44-6.52L43.44-6.52Q42.44-6.16 40.84-5.74Q39.24-5.32 36.48-4.96L36.48-4.96Q37.04-3.44 37.96-2.68Q38.88-1.92 40.04-1.92L40.04-1.92Q41.76-1.92 44.36-3.96L44.36-3.96Q44.76-4.32 45.36-4.32L45.36-4.32Q46-4.32 46.50-3.84Q47-3.36 47-2.64L47-2.64Q47-2.12 46.72-1.60ZM42.20-10.16L42.20-10.16Q41.44-11.40 40.40-11.40L40.40-11.40Q39.96-11.40 39.44-11.28Q38.92-11.16 38.38-10.94Q37.84-10.72 37.38-10.40Q36.92-10.08 36.64-9.64L36.64-9.64L36.24-8.44Q37.60-8.56 38.64-8.64Q39.68-8.72 40.44-8.88Q41.20-9.04 41.64-9.32Q42.08-9.60 42.20-10.16Z M66.32-4.72L66.32-4.72Q67.04-4.24 67.04-3.56L67.04-3.56Q67.04-3.20 66.84-2.82Q66.64-2.44 66.32-2.14Q66-1.84 65.64-1.64Q65.28-1.44 64.92-1.44L64.92-1.44Q64.60-1.56 64.16-1.86Q63.72-2.16 63.28-2.54Q62.84-2.92 62.46-3.40Q62.08-3.88 61.88-4.36L61.88-4.36L61.60-3.68Q60.84-2.24 59.20-0.96L59.20-0.96Q57.20-0.60 56.88-0.60L56.88-0.60Q56.12-0.60 55.04-0.84L55.04-0.84L52.84-2.40Q51.40-3.76 51.40-6.12L51.40-6.12Q51.40-6.96 51.66-7.98Q51.92-9 52.42-10.04Q52.92-11.08 53.64-12.08Q54.36-13.08 55.32-13.88L55.32-13.88Q56.48-14.32 57.56-14.62Q58.64-14.92 59.20-15L59.20-15Q59.96-15.84 61-15.84L61-15.84Q61.60-15.84 62.06-15.26Q62.52-14.68 62.86-13.80Q63.20-12.92 63.40-11.86Q63.60-10.80 63.68-9.84L63.68-9.84L64.20-7.72Q64.44-6.72 64.98-6Q65.52-5.28 66.32-4.72ZM60.24-9.16L60.24-9.16Q60.16-9.20 59.64-11.68L59.64-11.68Q59.44-11.68 59.04-11.68Q58.64-11.68 58.10-11.46Q57.56-11.24 56.94-10.70Q56.32-10.16 55.76-9.08L55.76-9.08Q54.92-7.52 54.92-5.96L54.92-5.96Q55.60-4.64 57.04-3.88L57.04-3.88Q57.48-4 57.78-4.16Q58.08-4.32 58.32-4.60Q58.56-4.88 58.78-5.30Q59-5.72 59.28-6.36L59.28-6.36Q59.80-7.28 60.02-7.98Q60.24-8.68 60.24-9.16Z M80.48-15.08L80.48-15.08Q80.92-14.72 80.92-13.76L80.92-13.76Q80.92-12 79.60-12L79.60-12L79.44-12Q78.84-11.96 78.04-11.90Q77.24-11.84 76.24-11.72L76.24-11.72Q76.16-11.08 76.08-10.02Q76-8.96 76-7.48L76-7.48Q76-7.36 76.02-7.24Q76.04-7.12 76.04-6.96L76.04-6.96L76.04-5.12Q76.04-4.48 76.26-4.10Q76.48-3.72 76.80-3.56L76.80-3.56L77.92-3.20Q79.24-2.76 79.24-1.60L79.24-1.60Q79.24-0.92 78.70-0.40Q78.16 0.12 77.32 0.12L77.32 0.12Q77.08 0.12 76.50-0.02Q75.92-0.16 75.30-0.40Q74.68-0.64 74.14-1Q73.60-1.36 73.40-1.80L73.40-1.80Q72.96-2.72 72.68-3.74Q72.40-4.76 72.40-5.88L72.40-5.88Q72.40-7.12 72.44-7.64Q72.48-8.16 72.52-8.56Q72.56-8.96 72.60-9.52Q72.64-10.08 72.64-11.36L72.64-11.36Q71.88-11.28 70.40-10.88L70.40-10.88Q69.52-10.88 68.90-11.34Q68.28-11.80 68.28-12.56L68.28-12.56Q68.28-13.12 68.62-13.60Q68.96-14.08 70.04-14.44L70.04-14.44Q70.40-14.56 70.70-14.60Q71-14.64 71.30-14.68Q71.60-14.72 71.96-14.74Q72.32-14.76 72.84-14.84L72.84-14.84Q72.88-15.84 72.98-17.10Q73.08-18.36 73.34-19.44Q73.60-20.52 74.10-21.26Q74.60-22 75.44-22L75.44-22Q76.88-22 77.20-20.68L77.20-20.68Q77.20-20.64 77.10-20.14Q77-19.64 76.88-19.04Q76.76-18.44 76.66-17.88Q76.56-17.32 76.56-17.16L76.56-17.16L76.44-15.20Q76.72-15.24 76.96-15.26Q77.20-15.28 77.48-15.28L77.48-15.28L77.84-15.28Q78.12-15.28 78.36-15.30Q78.60-15.32 78.80-15.32L78.80-15.32Q80-15.32 80.48-15.08Z M98.04-1.72L98.04-1.72Q97.84-1.16 97.24-0.60Q96.64-0.04 96.08-0.04L96.08-0.04Q94.92-0.04 94.56-1.68Q94.20-3.32 94.20-6.32L94.20-6.32L94.20-6.68Q94.20-8.20 93.98-8.90Q93.76-9.60 93.68-9.80L93.68-9.80Q93.24-10.76 92.32-10.76L92.32-10.76Q91.76-10.76 91.16-10.54Q90.56-10.32 90.08-10.02Q89.60-9.72 89.26-9.44Q88.92-9.16 88.84-9.04L88.84-9.04Q88.76-8.76 88.70-8.08Q88.64-7.40 88.60-6.52Q88.56-5.64 88.52-4.72Q88.48-3.80 88.46-3.04Q88.44-2.28 88.44-1.84Q88.44-1.40 88.48-1.48L88.48-1.48Q88.36-0.40 86.76-0.40L86.76-0.40Q85.56-0.40 85.22-1.16Q84.88-1.92 84.88-3.76L84.88-3.76Q84.88-4.24 84.90-4.32Q84.92-4.40 84.96-4.70Q85.00-5 85.08-5.80Q85.16-6.60 85.28-8.52L85.28-8.52Q85.32-9.32 85.36-9.98Q85.40-10.64 85.36-11.12L85.36-11.12Q85.36-11.56 85.36-11.86Q85.36-12.16 85.32-12.36L85.32-12.36Q85.36-12.48 85.42-13.12Q85.48-13.76 85.54-14.52Q85.60-15.28 85.68-15.96Q85.76-16.64 85.84-16.88L85.84-16.88Q85.84-17.72 85.88-18.82Q85.92-19.92 86.16-20.88Q86.40-21.84 86.90-22.50Q87.40-23.16 88.32-23.16L88.32-23.16Q89.88-23.16 89.88-21.16L89.88-21.16Q89.88-20.04 89.44-17.96L89.44-17.96Q89.36-16.88 89.26-16.28Q89.16-15.68 89.08-15.24Q89.00-14.80 88.96-14.40Q88.92-14 88.92-13.28L88.92-13.28Q89.92-14.12 90.84-14.26Q91.76-14.40 92.56-14.40L92.56-14.40Q94.56-14.40 95.76-13.24Q96.96-12.08 97.56-9.40L97.56-9.40Q97.60-8.44 97.62-7.90Q97.64-7.36 97.70-6.70Q97.76-6.04 97.84-4.92Q97.92-3.80 98.04-1.72Z M117.84-1.60L117.84-1.60Q116.56-0.32 114.96 0.58Q113.36 1.48 111.72 1.48L111.72 1.48Q110.24 1.48 107.92 1L107.92 1Q107.12 0.48 106.32-0.26Q105.52-1 104.88-1.90Q104.24-2.80 103.84-3.86Q103.44-4.92 103.44-6.04L103.44-6.04Q103.44-6.36 103.48-6.90Q103.52-7.44 103.58-7.98Q103.64-8.52 103.68-8.92Q103.72-9.32 103.72-9.32L103.72-9.32Q104.52-10.60 105.42-11.86Q106.32-13.12 107.96-14.08L107.96-14.08Q110.56-14.64 111.72-14.64L111.72-14.64Q112.32-14.64 112.76-14.58Q113.20-14.52 113.62-14.34Q114.04-14.16 114.46-13.80Q114.88-13.44 115.44-12.88L115.44-12.88Q116.08-12.20 116.46-11.96Q116.84-11.72 116.84-11.52L116.84-11.52Q116.84-7.84 114.56-6.52L114.56-6.52Q113.56-6.16 111.96-5.74Q110.36-5.32 107.60-4.96L107.60-4.96Q108.16-3.44 109.08-2.68Q110-1.92 111.16-1.92L111.16-1.92Q112.88-1.92 115.48-3.96L115.48-3.96Q115.88-4.32 116.48-4.32L116.48-4.32Q117.12-4.32 117.62-3.84Q118.12-3.36 118.12-2.64L118.12-2.64Q118.12-2.12 117.84-1.60ZM113.32-10.16L113.32-10.16Q112.56-11.40 111.52-11.40L111.52-11.40Q111.08-11.40 110.56-11.28Q110.04-11.16 109.50-10.94Q108.96-10.72 108.50-10.40Q108.04-10.08 107.76-9.64L107.76-9.64L107.36-8.44Q108.72-8.56 109.76-8.64Q110.80-8.72 111.56-8.88Q112.32-9.04 112.76-9.32Q113.20-9.60 113.32-10.16Z M132.52-13.96L133.92-13.60Q134.56-13.20 134.56-12.08L134.56-12.08Q134.56-11.24 134.12-10.64Q133.68-10.04 132.92-10.04L132.92-10.04Q132.44-10.04 131.94-10.30Q131.44-10.56 130.88-10.56L130.88-10.56Q130.40-10.56 129.94-10.38Q129.48-10.20 128.88-9.60L128.88-9.60L127.68-8.40Q127.68-8.12 127.70-7.84Q127.72-7.56 127.72-7.24L127.72-7.24Q127.72-6.76 127.70-6.24Q127.68-5.72 127.64-5.12L127.64-5.12L128-1.48Q127.88 0.36 126.12 0.36L126.12 0.36Q125.20 0.36 124.76-0.22Q124.32-0.80 124.16-1.84Q124-2.88 124.02-4.28Q124.04-5.68 124-7.36L124-7.36Q123.92-9.88 123.88-9.88L123.88-9.88L123.88-9.84Q123.72-10.44 123.64-10.90Q123.56-11.36 123.56-11.72L123.56-11.72Q123.56-12.44 124.08-12.90Q124.60-13.36 125.60-13.36L125.60-13.36Q126.24-13.36 127.12-12.36L127.12-12.36Q128.04-13.08 128.54-13.44Q129.04-13.80 129.38-13.96Q129.72-14.12 130.04-14.14Q130.36-14.16 130.88-14.16L130.88-14.16Q131.32-14.20 131.70-14.12Q132.08-14.04 132.52-13.96L132.52-13.96Z M29.24 8.28L29.24 8.28Q29.20 8.80 29.08 9.64Q28.96 10.48 28.76 11.36Q28.56 12.24 28.34 13Q28.12 13.76 27.92 14.16L27.92 14.16Q26.92 18.68 22.76 24.40L22.76 24.40Q22.36 25.36 21.58 25.92Q20.80 26.48 20.04 26.96L20.04 26.96Q19.80 26.80 19.36 26.12Q18.92 25.44 18.42 24.54Q17.92 23.64 17.44 22.68Q16.96 21.72 16.68 20.96L16.68 20.96Q15.64 19.96 14.48 17L14.48 17Q14.20 18.04 13.76 19.42Q13.32 20.80 12.68 22.60L12.68 22.60Q12 23.88 11.58 24.68Q11.16 25.48 10.80 25.98Q10.44 26.48 10.08 26.76Q9.72 27.04 9.20 27.28L9.20 27.28Q8.60 27 7.96 26.18Q7.32 25.36 6.76 24.38Q6.20 23.40 5.82 22.46Q5.44 21.52 5.40 20.96L5.40 20.96L2.88 14.72Q2.84 14.24 2.70 13.68Q2.56 13.12 2.40 12.54Q2.24 11.96 2.12 11.38Q2 10.80 2 10.28L2 10.28Q2 9.24 2.54 8.70Q3.08 8.16 3.80 8.16L3.80 8.16Q4.96 8.16 6.08 9.40L6.08 9.40Q6.04 9.56 6.04 9.92L6.04 9.92Q6.08 10.36 6.12 10.94Q6.16 11.52 6.28 12.32L6.28 12.32L6.68 14.72Q7.04 15.48 7.32 16.20Q7.60 16.92 7.88 17.72Q8.16 18.52 8.48 19.48Q8.80 20.44 9.24 21.68L9.24 21.68Q9.36 21.20 9.44 20.94Q9.52 20.68 9.58 20.46Q9.64 20.24 9.74 19.94Q9.84 19.64 10.06 19.04Q10.28 18.44 10.64 17.48Q11 16.52 11.60 14.96L11.60 14.96Q11.84 13.20 12.28 12.24L12.28 12.24L12.28 12Q12.28 10.48 14.28 10.48L14.28 10.48Q14.96 10.48 15.26 10.74Q15.56 11 15.74 11.44Q15.92 11.88 16.08 12.48Q16.24 13.08 16.68 13.80L16.68 13.80L17.24 15Q17.84 16.32 18.30 17.06Q18.76 17.80 19.08 18.20L19.08 18.20Q19.32 18.76 19.70 19.52Q20.08 20.28 20.60 21.28L20.60 21.28Q20.92 20.80 21.36 20.12Q21.80 19.44 22.30 18.36Q22.80 17.28 23.34 15.72Q23.88 14.16 24.48 11.92L24.48 11.92Q24.92 10.24 25.34 9.10Q25.76 7.96 26.16 7.28L26.16 7.28Q26.52 7.12 27.08 7.12L27.08 7.12Q28.56 7.12 29.24 8.28Z M46.72 26.40L46.72 26.40Q45.44 27.68 43.84 28.58Q42.24 29.48 40.60 29.48L40.60 29.48Q39.12 29.48 36.80 29L36.80 29Q36 28.48 35.20 27.74Q34.40 27 33.76 26.10Q33.12 25.20 32.72 24.14Q32.32 23.08 32.32 21.96L32.32 21.96Q32.32 21.64 32.36 21.10Q32.40 20.56 32.46 20.02Q32.52 19.48 32.56 19.08Q32.60 18.68 32.60 18.68L32.60 18.68Q33.40 17.40 34.30 16.14Q35.20 14.88 36.84 13.92L36.84 13.92Q39.44 13.36 40.60 13.36L40.60 13.36Q41.20 13.36 41.64 13.42Q42.08 13.48 42.50 13.66Q42.92 13.84 43.34 14.20Q43.76 14.56 44.32 15.12L44.32 15.12Q44.96 15.80 45.34 16.04Q45.72 16.28 45.72 16.48L45.72 16.48Q45.72 20.16 43.44 21.48L43.44 21.48Q42.44 21.84 40.84 22.26Q39.24 22.68 36.48 23.04L36.48 23.04Q37.04 24.56 37.96 25.32Q38.88 26.08 40.04 26.08L40.04 26.08Q41.76 26.08 44.36 24.04L44.36 24.04Q44.76 23.68 45.36 23.68L45.36 23.68Q46 23.68 46.50 24.16Q47 24.64 47 25.36L47 25.36Q47 25.88 46.72 26.40ZM42.20 17.84L42.20 17.84Q41.44 16.60 40.40 16.60L40.40 16.60Q39.96 16.60 39.44 16.72Q38.92 16.84 38.38 17.06Q37.84 17.28 37.38 17.60Q36.92 17.92 36.64 18.36L36.64 18.36L36.24 19.56Q37.60 19.44 38.64 19.36Q39.68 19.28 40.44 19.12Q41.20 18.96 41.64 18.68Q42.08 18.40 42.20 17.84Z M64.60 16.48L64.60 16.48Q65.56 18.36 65.56 19.92L65.56 19.92Q65.56 21.08 65.04 22.28L65.04 22.28L64.20 24.20L62.96 25.52Q61.68 26.92 60.44 27.34Q59.20 27.76 58.44 27.76L58.44 27.76Q57.48 27.76 56.48 27.16L56.48 27.16Q55.96 27.60 55.32 27.60L55.32 27.60Q54.60 27.60 53.60 27.04L53.60 27.04Q53.64 26.64 53.64 26.16Q53.64 25.68 53.64 25.12L53.64 25.12Q53.64 24.80 53.60 24.52Q53.56 24.24 53.52 23.78Q53.48 23.32 53.44 22.56Q53.40 21.80 53.36 20.56L53.36 20.56Q53.32 19.28 53.20 18.54Q53.08 17.80 52.96 17.60L52.96 17.60Q52.76 16.24 52.60 14.84Q52.44 13.44 52.28 12.22Q52.12 11 51.96 10.04Q51.80 9.08 51.64 8.60L51.64 8.60Q51.64 7.68 52.08 7.04Q52.52 6.40 53.28 6.40L53.28 6.40Q53.68 6.40 54.04 6.52Q54.40 6.64 54.70 7Q55 7.36 55.24 8Q55.48 8.64 55.60 9.68L55.60 9.68Q55.72 10.68 55.78 11.08Q55.84 11.48 55.90 11.88Q55.96 12.28 56.04 13Q56.12 13.72 56.32 15.36L56.32 15.36Q57.04 14.96 57.58 14.70Q58.12 14.44 58.60 14.28Q59.08 14.12 59.58 14.08Q60.08 14.04 60.76 14.04L60.76 14.04Q61.52 14.04 62.14 14.28Q62.76 14.52 63.22 14.88Q63.68 15.24 64.02 15.66Q64.36 16.08 64.60 16.48ZM61.80 21.20L61.80 21.20Q62 20.08 62 19.72L62 19.72Q62 19.52 61.88 19.14Q61.76 18.76 61.54 18.40Q61.32 18.04 61 17.76Q60.68 17.48 60.24 17.48L60.24 17.48Q59.56 17.48 58.68 18Q57.80 18.52 56.92 19.04L56.92 19.04L57.16 23.28Q57.44 24.28 58.20 24.28L58.20 24.28Q58.60 24.28 59.16 24.04Q59.72 23.80 60.26 23.38Q60.80 22.96 61.24 22.40Q61.68 21.84 61.80 21.20Z"/></g>
</svg>
</g><g opacity="1" transform="rotate(0 141.5376 159.1572)">
<svg width="11.0477" height="140" x="141.5376" y="159.1572" version="1.1" preserveAspectRatio="none" viewBox="6.48 -25.44 2.3200000000000003 29.4">
  <g transform="matrix(1 0 0 1 0 0)" class="icon3"><path id="id-lXek8z7fT1" d="M8.68-12.24L8.68-12.24Q8.68-12 8.74-11Q8.80-10 8.80-8.16L8.80-8.16Q8.80-6.80 8.60-6.32L8.60-6.32Q8.68-5.96 8.68-5.58Q8.68-5.20 8.68-4.76L8.68-4.76Q8.68-3.84 8.58-2.86Q8.48-1.88 8.44-0.96L8.44-0.96Q8.48-0.48 8.48-0.02Q8.48 0.44 8.48 0.88L8.48 0.88Q8.48 1.36 8.48 1.90Q8.48 2.44 8.42 2.90Q8.36 3.36 8.18 3.66Q8 3.96 7.64 3.96L7.64 3.96Q7 3.96 6.84 3.72L6.84 3.72Q6.48 2.24 6.48-0.04L6.48-0.04Q6.48-1.40 6.66-3.12Q6.84-4.84 6.84-6.56L6.84-6.56Q6.84-8.08 6.60-9.52L6.60-9.52Q6.60-9.60 6.64-10.30Q6.68-11 6.72-11.88Q6.76-12.76 6.84-13.54Q6.92-14.32 7.04-14.56L7.04-14.56Q6.84-15.36 6.84-17.48L6.84-17.48Q6.84-18.12 6.84-18.82Q6.84-19.52 6.86-20.40Q6.88-21.28 6.98-22.42Q7.08-23.56 7.28-25.16L7.28-25.16Q7.32-25.44 7.84-25.44L7.84-25.44Q8.60-25.44 8.70-25.04Q8.80-24.64 8.80-23.72L8.80-23.72Q8.80-23.12 8.76-22.32Q8.72-21.52 8.64-20.48L8.64-20.48Q8.68-19.20 8.68-17.14Q8.68-15.08 8.68-12.24Z"/></g>
</svg>
</g></svg></svg>